<?xml version="1.0" encoding="UTF-8" standalone="no"?>
<!-- Created with Inkscape (http://www.inkscape.org/) -->

<svg
   width="200"
   height="200"
   viewBox="0 0 25.914474 25.91445"
   version="1.1"
   id="svg5"
   inkscape:version="1.2.1 (9c6d41e, 2022-07-14)"
   sodipodi:docname="aurora_latest.v3.svg"
   xmlns:inkscape="http://www.inkscape.org/namespaces/inkscape"
   xmlns:sodipodi="http://sodipodi.sourceforge.net/DTD/sodipodi-0.dtd"
   xmlns:xlink="http://www.w3.org/1999/xlink"
   xmlns="http://www.w3.org/2000/svg"
   xmlns:svg="http://www.w3.org/2000/svg">
  <sodipodi:namedview
     id="namedview7"
     pagecolor="#1a1a1a"
     bordercolor="#eeeeee"
     borderopacity="1"
     inkscape:showpageshadow="0"
     inkscape:pageopacity="1"
     inkscape:pagecheckerboard="true"
     inkscape:deskcolor="#505050"
     inkscape:document-units="px"
     showgrid="false"
     showborder="false"
     borderlayer="false"
     shape-rendering="auto"
     inkscape:zoom="3.0711435"
     inkscape:cx="353.93983"
     inkscape:cy="245.02274"
     inkscape:window-width="2560"
     inkscape:window-height="1387"
     inkscape:window-x="0"
     inkscape:window-y="25"
     inkscape:window-maximized="1"
     inkscape:current-layer="layer1"
     showguides="true" />
  <defs
     id="defs2">
    <linearGradient
       inkscape:collect="always"
       id="linearGradient54654">
      <stop
         style="stop-color:#ffffff;stop-opacity:1;"
         offset="0"
         id="stop54650" />
      <stop
         style="stop-color:#03273d;stop-opacity:0.65437788;"
         offset="1"
         id="stop54652" />
    </linearGradient>
    <linearGradient
       inkscape:collect="always"
       id="linearGradient54452">
      <stop
         style="stop-color:#04d5da;stop-opacity:1;"
         offset="0"
         id="stop54448" />
      <stop
         style="stop-color:#000000;stop-opacity:1;"
         offset="1"
         id="stop54450" />
    </linearGradient>
    <linearGradient
       inkscape:collect="always"
       id="linearGradient54446">
      <stop
         style="stop-color:#042e48;stop-opacity:1;"
         offset="0"
         id="stop54442" />
      <stop
         style="stop-color:#ffffff;stop-opacity:0.94009215;"
         offset="1"
         id="stop54444" />
    </linearGradient>
    <linearGradient
       inkscape:collect="always"
       id="linearGradient46829">
      <stop
         style="stop-color:#042e48;stop-opacity:1;"
         offset="0"
         id="stop46825" />
      <stop
         style="stop-color:#000000;stop-opacity:1;"
         offset="1"
         id="stop46827" />
    </linearGradient>
    <linearGradient
       inkscape:collect="always"
       id="linearGradient39447">
      <stop
         style="stop-color:#053c37;stop-opacity:1;"
         offset="0"
         id="stop39443" />
      <stop
         style="stop-color:#010e0c;stop-opacity:1;"
         offset="1"
         id="stop39445" />
    </linearGradient>
    <radialGradient
       inkscape:collect="always"
       xlink:href="#linearGradient46829"
       id="radialGradient54351"
       gradientUnits="userSpaceOnUse"
       gradientTransform="translate(14.142709,6.5872318)"
       cx="103.4494"
       cy="36.712479"
       fx="103.4494"
       fy="36.712479"
       r="9.6787186" />
    <radialGradient
       inkscape:collect="always"
       xlink:href="#linearGradient39447"
       id="radialGradient54355"
       gradientUnits="userSpaceOnUse"
       gradientTransform="matrix(0.99999999,1.0818793e-4,-1.077363e-4,0.99582543,-44.629566,6.5179898)"
       cx="162.21593"
       cy="36.917065"
       fx="162.21593"
       fy="36.917065"
       r="9.6798944" />
    <linearGradient
       inkscape:collect="always"
       xlink:href="#linearGradient54446"
       id="linearGradient54357"
       gradientUnits="userSpaceOnUse"
       gradientTransform="translate(14.142709,6.5872318)"
       x1="103.45008"
       y1="30.912476"
       x2="103.44928"
       y2="27.046434" />
    <linearGradient
       inkscape:collect="always"
       xlink:href="#linearGradient54452"
       id="linearGradient54359"
       gradientUnits="userSpaceOnUse"
       gradientTransform="translate(-30.720826,-35.965185)"
       x1="148.31293"
       y1="82.347069"
       x2="148.31293"
       y2="73.844254" />
    <linearGradient
       inkscape:collect="always"
       xlink:href="#linearGradient54654"
       id="linearGradient54361"
       gradientUnits="userSpaceOnUse"
       gradientTransform="translate(14.143034,6.5876)"
       x1="103.44394"
       y1="42.510807"
       x2="103.44498"
       y2="37.087627" />
    <filter
       inkscape:collect="always"
       style="color-interpolation-filters:sRGB"
       id="filter56109"
       x="-0.013784358"
       y="-0.016377997"
       width="1.0275698"
       height="1.0327567">
      <feGaussianBlur
         inkscape:collect="always"
         stdDeviation="0.078078905"
         id="feGaussianBlur56111" />
    </filter>
    <filter
       inkscape:collect="always"
       style="color-interpolation-filters:sRGB"
       id="filter56121"
       x="-0.04477144"
       y="-0.020480648"
       width="1.1087378"
       height="1.026718">
      <feGaussianBlur
         inkscape:collect="always"
         stdDeviation="0.018318079"
         id="feGaussianBlur56123" />
    </filter>
  </defs>
  <g
     inkscape:label="Layer 1"
     inkscape:groupmode="layer"
     id="layer1"
     transform="translate(-104.63487,-30.342485)">
    <path
       id="path58605"
       style="opacity:1;fill:none;fill-opacity:1;stroke:#ffffff;stroke-width:0.079375;stroke-dasharray:none;stroke-opacity:1"
       d="M 128.00165,43.299712 A 10.409534,10.409534 0 0 1 117.5921,53.709245 10.409534,10.409534 0 0 1 107.18257,43.299712 10.409534,10.409534 0 0 1 117.5921,32.890178 10.409534,10.409534 0 0 1 128.00165,43.299712 Z"
       inkscape:export-filename="MyIcons/aurora.v10.svg"
       inkscape:export-xdpi="96"
       inkscape:export-ydpi="96" />
    <path
       id="path54319"
       style="fill:url(#radialGradient54351);fill-opacity:1;stroke:none;stroke-width:0.0264583;stroke-opacity:1"
       d="m 127.2576,43.299712 a 9.6654892,9.6654892 0 0 1 -9.66549,9.665489 9.6654892,9.6654892 0 0 1 -9.66549,-9.665489 9.6654892,9.6654892 0 0 1 9.66549,-9.665489 9.6654892,9.6654892 0 0 1 9.66549,9.665489 z"
       inkscape:export-filename="MyIcons/aurora.v10.svg"
       inkscape:export-xdpi="96"
       inkscape:export-ydpi="96" />
    <path
       style="fill:url(#radialGradient54355);fill-opacity:1;stroke:#ffffff;stroke-width:0.105833;stroke-dasharray:none;stroke-opacity:1"
       d="m 117.59183,33.633667 v 5.17e-4 c -0.0263,-2.19e-4 -0.11825,-4.61e-4 -0.16744,0 -0.74696,0.007 -1.47698,0.11517 -2.15284,0.280087 -0.37821,0.09319 -0.75044,0.209155 -1.11466,0.347265 -0.364,0.138106 -0.71932,0.298078 -1.06402,0.479041 -0.34483,0.181055 -0.67841,0.38279 -0.9989,0.604097 -0.32049,0.221223 -0.62732,0.461612 -0.91881,0.719853 -0.10155,0.09721 -0.20096,0.196625 -0.29817,0.298173 0.36212,0.245429 0.71367,0.506113 1.05368,0.781347 0.39128,0.321079 0.76656,0.661176 1.12448,1.01906 0.35788,0.357923 0.69798,0.733202 1.01906,1.124479 0.27541,0.340007 0.53627,0.691554 0.78186,1.053682 0.0412,0.05485 0.082,0.109972 0.12248,0.165365 0.1808,0.280825 0.35246,0.567436 0.5147,0.859379 0.0908,-0.145966 0.1792,-0.293438 0.2651,-0.44235 0.23868,-0.446438 0.45529,-0.904327 0.64905,-1.37201 0.0944,-0.244045 0.18265,-0.490451 0.26458,-0.738973 -0.0351,-0.31786 -0.0549,-0.63727 -0.0584,-0.957047 6.4e-4,-0.01275 0.001,-0.02549 0.002,-0.03824 0.12428,-0.24702 0.25236,-0.502879 0.35501,-0.759643 0.13792,-0.364059 0.25371,-0.736118 0.34675,-1.114144 0.0934,-0.378151 0.16376,-0.761603 0.21084,-1.14825 0.0419,-0.350593 0.0622,-1.041577 0.0646,-1.12913 0.002,0.0888 0.0227,0.778395 0.0646,1.128613 0.0471,0.386647 0.11744,0.7701 0.21084,1.14825 0.093,0.378026 0.20883,0.750085 0.34675,1.114144 0.10265,0.256764 0.23074,0.512623 0.35502,0.759644 10e-4,0.01275 10e-4,0.02549 0.002,0.03824 -0.004,0.319777 -0.0233,0.639187 -0.0584,0.957048 0.0819,0.248521 0.17019,0.494927 0.26459,0.738973 0.19376,0.467682 0.41037,0.925571 0.64905,1.372009 0.0859,0.148913 0.1743,0.296384 0.2651,0.44235 0.16224,-0.291943 0.3339,-0.578553 0.5147,-0.859379 0.0405,-0.05539 0.0813,-0.110515 0.12247,-0.165365 0.2456,-0.362128 0.50646,-0.713674 0.78187,-1.053682 0.32108,-0.391277 0.66118,-0.766555 1.01906,-1.124479 0.35792,-0.357884 0.7332,-0.697981 1.12448,-1.019059 0.34,-0.275235 0.69156,-0.535919 1.05368,-0.781348 -0.0972,-0.101548 -0.19663,-0.200963 -0.29818,-0.298173 -0.29149,-0.258241 -0.59831,-0.49863 -0.9188,-0.719853 -0.32049,-0.221306 -0.65407,-0.423041 -0.99891,-0.604097 -0.3447,-0.180963 -0.70002,-0.340935 -1.06402,-0.479041 -0.36422,-0.13811 -0.73645,-0.254075 -1.11466,-0.347265 -0.67586,-0.164917 -1.40588,-0.273087 -2.15284,-0.280087 -0.0498,-4.67e-4 -0.14459,-2.21e-4 -0.16949,0 z"
       id="path54323" />
    <path
       id="path54331"
       style="fill:#000000;fill-opacity:1;stroke:#ffffff;stroke-width:0.079375;stroke-dasharray:none;stroke-opacity:1"
       d="m 118.58642,43.691518 a 9.6654892,9.6654892 0 0 1 -0.25942,-0.331246 9.6654892,9.6654892 0 0 1 -0.60358,-0.998906 9.6654892,9.6654892 0 0 1 -0.13384,-0.297656 9.6654892,9.6654892 0 0 1 -0.13436,0.297656 9.6654892,9.6654892 0 0 1 -0.6041,0.998906 9.6654892,9.6654892 0 0 1 -0.262,0.334863 15.464787,15.464786 0 0 1 0.33176,0.928109 15.464787,15.464786 0 0 1 0.36897,1.472261 15.464787,15.464786 0 0 1 0.22273,1.5012 15.464787,15.464786 0 0 1 0.0744,1.51567 15.464787,15.464786 0 0 1 0.0744,-1.51567 15.464787,15.464786 0 0 1 0.22272,-1.5012 15.464787,15.464786 0 0 1 0.36897,-1.472261 15.464787,15.464786 0 0 1 0.33332,-0.931726 z" />
    <path
       id="path54321"
       style="fill:none;fill-opacity:1;stroke:#ffffff;stroke-width:0.105833;stroke-dasharray:none;stroke-opacity:1"
       d="m 118.96128,44.143071 c -0.0941,0.146538 -0.18422,0.295593 -0.27027,0.447001 -0.18096,0.344701 -0.34093,0.700021 -0.47904,1.064017 -0.13811,0.364217 -0.25407,0.736449 -0.34726,1.114661 -0.0932,0.377993 -0.1634,0.761269 -0.21033,1.147734 -0.0469,0.386663 -0.0704,0.775807 -0.0703,1.165303 7e-5,-0.389496 -0.0234,-0.77864 -0.0703,-1.165303 -0.0471,-0.386475 -0.11751,-0.769752 -0.21084,-1.147734 -0.093,-0.3782 -0.20881,-0.750433 -0.34675,-1.114661 -0.13811,-0.363996 -0.29808,-0.719316 -0.47904,-1.064017 -0.0854,-0.150339 -0.17485,-0.29836 -0.2682,-0.443901 -0.0265,0.03429 -0.0532,0.06839 -0.0801,0.10232 -0.25838,0.291479 -0.53414,0.567072 -0.82578,0.825272 -0.29149,0.258242 -0.59832,0.498631 -0.91881,0.719853 -0.32033,0.22129 -0.65373,0.423023 -0.99839,0.604097 -0.34487,0.180982 -0.70036,0.340954 -1.06453,0.479041 -0.36406,0.137916 -0.73612,0.253709 -1.11415,0.346749 -0.37815,0.09335 -0.7616,0.163761 -1.14825,0.21084 -0.38308,0.04628 -0.76859,0.06957 -1.15445,0.06976 0.0391,0.0907 0.0796,0.180804 0.12144,0.270267 0.18089,0.344823 0.38245,0.678399 0.60358,0.998906 0.22124,0.320314 0.46163,0.626969 0.71985,0.91829 0.2582,0.291641 0.5338,0.567407 0.82528,0.825789 0.29149,0.258241 0.59831,0.49863 0.9188,0.719853 0.32051,0.221131 0.65409,0.422692 0.99891,0.603581 0.3447,0.180963 0.70002,0.340935 1.06402,0.47904 0.36422,0.13811 0.73645,0.254077 1.11466,0.347266 0.37799,0.09316 0.76127,0.163393 1.14773,0.210323 0.12043,0.0095 0.24103,0.01673 0.36173,0.0217 0.10033,0.0076 0.20077,0.01363 0.30128,0.01809 0.16714,0.01452 0.33462,0.02469 0.50229,0.03049 0.16767,-0.0058 0.33516,-0.01597 0.5023,-0.03049 0.10051,-0.0045 0.20095,-0.01049 0.30127,-0.01809 0.12053,-0.005 0.24096,-0.01221 0.36122,-0.0217 0.38664,-0.04691 0.77009,-0.117145 1.14825,-0.210323 0.37804,-0.09321 0.75009,-0.209176 1.11414,-0.347266 0.36417,-0.138086 0.71967,-0.298058 1.06454,-0.47904 0.34482,-0.180889 0.6784,-0.38245 0.9989,-0.603581 0.32049,-0.221222 0.62732,-0.461611 0.91881,-0.719853 0.29148,-0.258383 0.56707,-0.534148 0.82527,-0.825789 0.25823,-0.291321 0.49862,-0.597976 0.71986,-0.91829 0.22113,-0.320507 0.42269,-0.654083 0.60358,-0.998906 0.042,-0.08963 0.0827,-0.179903 0.12195,-0.270784 -0.38447,-1.84e-4 -0.76859,-0.02331 -1.15031,-0.06925 -0.38665,-0.04708 -0.7701,-0.117488 -1.14825,-0.21084 -0.37803,-0.09304 -0.75009,-0.208833 -1.11415,-0.346749 -0.36417,-0.138087 -0.71966,-0.298059 -1.06453,-0.479041 -0.34484,-0.181056 -0.67842,-0.382789 -0.99891,-0.604097 -0.32049,-0.221223 -0.62731,-0.461612 -0.9188,-0.719853 -0.29147,-0.258215 -0.56706,-0.533808 -0.82528,-0.825272 -0.0278,-0.03495 -0.0554,-0.07009 -0.0827,-0.10542 z"
       sodipodi:nodetypes="cccsccccccccccccccccccccccscccccccccccccccccccccsccc" />
    <path
       style="fill:none;fill-opacity:1;stroke:#ffffff;stroke-width:0.105833;stroke-dasharray:none;stroke-opacity:1"
       d="m 109.08535,39.494253 c 0.38646,0.0469 0.76975,0.11717 1.14774,0.21032 0.37821,0.0932 0.75044,0.20916 1.11466,0.34727 0.364,0.13811 0.71932,0.29808 1.06402,0.47904 0.34484,0.18106 0.67841,0.38279 0.9989,0.6041 0.0959,0.0725 0.19057,0.14672 0.28474,0.22272 0.21952,0.1568 0.43145,0.32266 0.63613,0.49713 0.18241,0.16886 0.35824,0.34469 0.5271,0.5271 -0.24543,0.36212 -0.5061,0.71366 -0.78134,1.05368 -0.32108,0.39128 -0.66118,0.76656 -1.01906,1.12448 -0.35792,0.35788 -0.7332,0.69798 -1.12448,1.01906 -0.39131,0.32104 -0.79816,0.62268 -1.21905,0.90382 -0.42088,0.28125 -0.85531,0.54167 -1.30173,0.78031 -0.16803,0.0834 -0.33754,0.16364 -0.50849,0.24082 -0.12964,-0.25678 -0.24776,-0.51921 -0.35399,-0.78652 -0.13809,-0.36405 -0.25405,-0.73611 -0.34726,-1.11414 -0.0932,-0.37816 -0.16342,-0.76161 -0.21033,-1.14825 -0.047,-0.38631 -0.0707,-0.77511 -0.0708,-1.16427 h -0.002 v -5.2e-4 c 1e-4,-0.3895 0.0237,-0.77865 0.0708,-1.1653 0.0469,-0.38664 0.11714,-0.77009 0.21032,-1.14825 0.0932,-0.37804 0.20918,-0.7501 0.34727,-1.11415 0.0278,-0.06567 0.17564,-0.390153 0.17564,-0.390153 0,0 0.30108,0.01695 0.36121,0.0217 z"
       id="path51542-5"
       sodipodi:nodetypes="cscscccccccccccccccsccccc" />
    <g
       aria-label="AURORA"
       transform="translate(37.165427,-79.116478)"
       id="g54347"
       style="font-size:2.11667px;font-family:Questrial;-inkscape-font-specification:Questrial;text-align:center;letter-spacing:0.423333px;text-anchor:middle;fill:none;stroke:#ffffff;stroke-width:0.0264583">
      <path
         d="m 76.288338,130.06325 -0.687641,-0.3836 -0.334739,0.25681 -0.157122,-0.0877 1.312785,-0.99337 0.133092,0.0742 -0.155625,1.6389 -0.155274,-0.0866 z m 0.01651,-0.1556 0.0872,-0.83845 -0.667628,0.51465 z"
         style="fill:#ffffff"
         id="path54335" />
      <path
         d="m 77.5501,130.9999 q -0.282728,-0.0888 -0.382481,-0.27981 -0.0971,-0.19244 -0.0071,-0.47921 l 0.27453,-0.87443 0.163578,0.0514 -0.278968,0.88857 q -0.06594,0.21003 0.0035,0.3494 0.06939,0.13936 0.271339,0.20277 0.199929,0.0628 0.334506,-0.0126 0.136597,-0.0747 0.202535,-0.28472 l 0.278968,-0.88857 0.165598,0.052 -0.27453,0.87443 q -0.0894,0.28475 -0.281083,0.38652 -0.191686,0.10177 -0.470375,0.0143 z"
         style="fill:#ffffff"
         id="path54337" />
      <path
         d="m 80.074123,131.43928 -0.183154,-0.0191 -0.133153,-0.51829 q -0.02401,-0.0961 -0.08176,-0.1341 -0.05565,-0.0377 -0.16512,-0.0492 l -0.374729,-0.0391 -0.06838,0.65472 -0.170522,-0.0178 0.156541,-1.49892 0.595777,0.0622 q 0.2421,0.0253 0.359306,0.14606 0.119311,0.121 0.0982,0.3231 -0.01539,0.14737 -0.103837,0.24028 -0.08612,0.091 -0.235779,0.11797 0.06416,0.0173 0.105641,0.0685 0.0417,0.0491 0.06448,0.13655 z m -0.51245,-0.8601 q 0.345256,0.0361 0.374717,-0.24604 0.01451,-0.13895 -0.06266,-0.21511 -0.07695,-0.0783 -0.253792,-0.0967 l -0.410518,-0.0429 -0.05826,0.55789 z"
         style="fill:#ffffff"
         id="path54339" />
      <path
         d="m 81.403248,131.39564 q -0.208554,0.0204 -0.371407,-0.0572 -0.162853,-0.0776 -0.264021,-0.24213 -0.09927,-0.16681 -0.122151,-0.40064 -0.02309,-0.23594 0.04216,-0.41673 0.06525,-0.18078 0.209965,-0.28852 0.144711,-0.10774 0.355372,-0.12835 0.210661,-0.0206 0.373514,0.057 0.162853,0.0777 0.261915,0.24235 0.09906,0.1647 0.121945,0.39853 0.02309,0.23594 -0.04427,0.41693 -0.06525,0.18078 -0.209759,0.29063 -0.144711,0.10774 -0.353266,0.12815 z m -0.01443,-0.14747 q 0.238046,-0.0233 0.354889,-0.19849 0.116843,-0.17519 0.08777,-0.47222 -0.02907,-0.29704 -0.177451,-0.44415 -0.146277,-0.14732 -0.38643,-0.12382 -0.240154,0.0235 -0.356996,0.1987 -0.117049,0.17309 -0.08819,0.46801 0.02907,0.29703 0.177658,0.44625 0.14859,0.14923 0.388743,0.12572 z"
         style="fill:#ffffff"
         id="path54341" />
      <path
         d="m 83.940265,130.79932 -0.175842,0.0547 -0.326848,-0.4237 q -0.06,-0.0789 -0.128042,-0.091 -0.06602,-0.0127 -0.171122,0.02 l -0.359768,0.1119 0.195504,0.62858 -0.163715,0.0509 -0.447584,-1.43907 0.57199,-0.1779 q 0.232434,-0.0723 0.387785,-0.008 0.157373,0.0641 0.217721,0.25813 0.044,0.14149 -6.04e-4,0.26176 -0.04322,0.11763 -0.170105,0.20143 0.0658,-0.009 0.124095,0.0212 0.05767,0.0286 0.11313,0.10003 z m -0.810241,-0.58812 q 0.331471,-0.1031 0.247234,-0.37394 -0.04149,-0.13339 -0.142452,-0.17293 -0.101591,-0.0416 -0.271369,0.0113 l -0.394128,0.12258 0.166587,0.53561 z"
         style="fill:#ffffff"
         id="path54343" />
      <path
         d="m 85.25805,129.70738 -0.690203,0.37897 0.03986,0.42002 -0.157708,0.0866 -0.14461,-1.6399 0.133588,-0.0734 1.306081,1.00217 -0.155853,0.0856 z m -0.12308,-0.0966 -0.664156,-0.51913 0.08156,0.83901 z"
         style="fill:#ffffff"
         id="path54345" />
    </g>
    <path
       id="path54329"
       style="fill:url(#linearGradient54361);fill-opacity:1;stroke:#ffffff;stroke-width:0.079375;stroke-dasharray:none;stroke-opacity:1"
       d="m 118.58639,43.691518 a 15.464787,15.464786 0 0 0 -0.33332,0.931726 15.464787,15.464786 0 0 0 -0.36897,1.472261 15.464787,15.464786 0 0 0 -0.22272,1.5012 15.464787,15.464786 0 0 0 -0.0744,1.494483 9.6654892,9.6654892 0 0 1 0,5.17e-4 15.464787,15.464786 0 0 1 0,0.0067 9.6654892,9.6654892 0 0 1 0.0703,-1.15135 9.6654892,9.6654892 0 0 1 0.21033,-1.147734 9.6654892,9.6654892 0 0 1 0.34726,-1.114661 9.6654892,9.6654892 0 0 1 0.47904,-1.064017 9.6654892,9.6654892 0 0 1 0.27027,-0.447001 9.6654892,9.6654892 0 0 1 -0.37775,-0.482141 z m -1.9973,0.0036 a 9.6654892,9.6654892 0 0 1 -0.37724,0.481624 9.6654892,9.6654892 0 0 1 0.2682,0.443901 9.6654892,9.6654892 0 0 1 0.47904,1.064017 9.6654892,9.6654892 0 0 1 0.34674,1.114661 9.6654892,9.6654892 0 0 1 0.21084,1.147734 9.6654892,9.6654892 0 0 1 0.0693,1.003039 15.464787,15.464786 0 0 0 -0.0734,-1.353406 15.464787,15.464786 0 0 0 -0.22273,-1.5012 15.464787,15.464786 0 0 0 -0.36897,-1.472261 15.464787,15.464786 0 0 0 -0.33176,-0.928109 z m 0.99683,5.265311 a 9.6654892,9.6654892 0 0 1 5.2e-4,0.02481 15.464787,15.464786 0 0 0 -5.2e-4,-0.02481 z m 5.2e-4,0.06201 a 9.6654892,9.6654892 0 0 1 5.1e-4,0.01912 15.464787,15.464786 0 0 0 -5.1e-4,-0.01912 z" />
    <path
       id="path54327"
       style="fill:url(#linearGradient54359);fill-opacity:1;stroke:#ffffff;stroke-width:0.079375;stroke-dasharray:none;stroke-opacity:1"
       d="m 117.59054,33.638833 c 0,0 -0.0268,0.988305 -0.0749,1.48053 -0.0496,0.503743 -0.12396,1.004748 -0.22273,1.5012 -0.0987,0.496488 -0.22161,0.987834 -0.36845,1.472262 -0.0788,0.238357 -0.16341,0.474761 -0.24868,0.713222 -0.0853,0.238461 -0.17089,0.47814 -0.2624,0.715597 -0.19377,0.467684 -0.41038,0.925572 -0.64906,1.372009 -0.23864,0.446419 -0.49906,0.880852 -0.78031,1.301729 -0.28114,0.420895 -0.58278,0.827734 -0.90382,1.219047 -0.32125,0.39129 -0.66152,0.766568 -1.01958,1.12448 -0.35792,0.357883 -0.7332,0.697979 -1.12448,1.019059 -0.3913,0.321218 -0.79814,0.623027 -1.21905,0.904337 -0.42089,0.281077 -0.85532,0.541323 -1.30173,0.779798 -0.16802,0.08335 -0.33755,0.163631 -0.50849,0.240812 0.003,0.0069 0.006,0.01378 0.009,0.02067 0.38482,-1.42e-4 0.76929,-0.02327 1.15135,-0.06925 0.38647,-0.04693 0.76974,-0.117165 1.14774,-0.210323 0.37821,-0.09319 0.75044,-0.209156 1.11466,-0.347266 0.364,-0.138105 0.71932,-0.298077 1.06402,-0.47904 0.34483,-0.181056 0.67841,-0.38279 0.9989,-0.604098 0.32049,-0.221222 0.62732,-0.461611 0.91881,-0.719852 0.29146,-0.258216 0.56705,-0.533809 0.82527,-0.825273 0.25824,-0.291488 0.49863,-0.598316 0.71985,-0.918807 0.22131,-0.320493 0.42304,-0.654069 0.6041,-0.998905 0.0448,-0.09506 0.088,-0.190849 0.12971,-0.287321 3e-5,6.8e-5 4.8e-4,-6.9e-5 5.2e-4,0 0.0415,0.09647 0.0846,0.192256 0.12919,0.287321 0.18105,0.344835 0.38278,0.678412 0.60409,0.998905 0.22122,0.320491 0.46162,0.627319 0.71986,0.918807 0.25822,0.291464 0.53381,0.567057 0.82527,0.825273 0.29149,0.258241 0.59832,0.49863 0.91881,0.719852 0.32049,0.221308 0.65407,0.423042 0.9989,0.604098 0.3447,0.180963 0.70002,0.340935 1.06402,0.47904 0.36422,0.13811 0.73645,0.254077 1.11466,0.347266 0.37799,0.09316 0.76127,0.163393 1.14773,0.210323 0.38206,0.04598 0.76653,0.0691 1.15135,0.06925 0.003,-0.0069 0.006,-0.01378 0.009,-0.02067 -0.17095,-0.07718 -0.34047,-0.157464 -0.5085,-0.240812 -0.44641,-0.238475 -0.88084,-0.498721 -1.30173,-0.779798 -0.4209,-0.281311 -0.82774,-0.58312 -1.21904,-0.904337 -0.39128,-0.32108 -0.76656,-0.661176 -1.12448,-1.019059 -0.35806,-0.357912 -0.69833,-0.73319 -1.01958,-1.12448 -0.32104,-0.391313 -0.62268,-0.798152 -0.90382,-1.219047 -0.28125,-0.420877 -0.54167,-0.85531 -0.78031,-1.301729 -0.2385,-0.446447 -0.45494,-0.904335 -0.64854,-1.372009 -0.0917,-0.237623 -0.1775,-0.477475 -0.25735,-0.719336 2e-5,-3.45e-4 -2e-5,-6.89e-4 0,-10e-4 -0.0903,-0.234067 -0.17491,-0.470299 -0.25373,-0.708483 -0.14684,-0.484428 -0.2698,-0.975774 -0.36845,-1.472262 -0.0988,-0.496452 -0.1731,-0.997457 -0.22273,-1.5012 -0.0479,-0.491889 -0.0744,-1.48053 -0.0744,-1.48053 z"
       sodipodi:nodetypes="ccccccscccccccccscscssccccccsscscscccccccccccccccccc" />
    <path
       id="path54325"
       style="fill:url(#linearGradient54357);fill-opacity:1;stroke:#ffffff;stroke-width:0.0264583;stroke-dasharray:none;stroke-opacity:1"
       d="m 117.59199,33.633666 c 4.6e-4,0.496115 0.0248,0.991921 0.0729,1.485698 0.0496,0.503744 0.12396,1.004747 0.22273,1.5012 0.0988,0.496497 0.22196,0.987842 0.36897,1.472261 0.0779,0.235554 0.16927,0.487875 0.25842,0.719408 0.0357,-0.321453 0.0473,-0.663168 0.0506,-0.986575 -6.6e-4,-0.0086 -0.001,-0.01723 -0.002,-0.02584 -0.12635,-0.250995 -0.2417,-0.507382 -0.34571,-0.768428 -0.13809,-0.364048 -0.25406,-0.736107 -0.34727,-1.114144 -0.0932,-0.378163 -0.21032,-1.148251 -0.21032,-1.148251 0,0 -0.0678,-0.755877 -0.0682,-1.135331 z m 0,0 c -7.7e-4,0.376523 -0.0275,0.76148 -0.0722,1.135346 -0.0471,0.386649 -0.11749,0.770099 -0.21084,1.148251 -0.093,0.378026 -0.20883,0.750085 -0.34675,1.114144 -0.10265,0.256764 -0.21627,0.509005 -0.34055,0.756026 h -5.2e-4 c -6.9e-4,0.01274 -10e-4,0.02549 -0.002,0.03824 0.003,0.319777 0.0155,0.668698 0.0506,0.98656 0.0876,-0.227982 0.17708,-0.487518 0.25379,-0.719393 0.14701,-0.484419 0.36897,-1.472261 0.36897,-1.472261 0,0 0.17309,-0.997457 0.22272,-1.5012 0.0477,-0.490868 0.0762,-0.992536 0.0768,-1.485713 z"
       sodipodi:nodetypes="ccccccccccccccccccccccccc" />
    <path
       id="path56107"
       style="fill:none;fill-opacity:1;stroke:#ffffff;stroke-width:0.079375;stroke-dasharray:none;stroke-opacity:1;filter:url(#filter56109)"
       d="m 117.59054,33.638833 c 0,0 -0.0268,0.988305 -0.0749,1.48053 -0.0496,0.503743 -0.12396,1.004748 -0.22273,1.5012 -0.0987,0.496488 -0.22161,0.987834 -0.36845,1.472262 -0.0788,0.238357 -0.16341,0.474761 -0.24868,0.713222 -0.0853,0.238461 -0.17089,0.47814 -0.2624,0.715597 -0.19377,0.467684 -0.41038,0.925572 -0.64906,1.372009 -0.23864,0.446419 -0.49906,0.880852 -0.78031,1.301729 -0.28114,0.420895 -0.58278,0.827734 -0.90382,1.219047 -0.32125,0.39129 -0.66152,0.766568 -1.01958,1.12448 -0.35792,0.357883 -0.7332,0.697979 -1.12448,1.019059 -0.3913,0.321218 -0.79814,0.623027 -1.21905,0.904337 -0.42089,0.281077 -0.85532,0.541323 -1.30173,0.779798 -0.16802,0.08335 -0.33755,0.163631 -0.50849,0.240812 0.003,0.0069 0.006,0.01378 0.009,0.02067 0.38482,-1.42e-4 0.76929,-0.02327 1.15135,-0.06925 0.38647,-0.04693 0.76974,-0.117165 1.14774,-0.210323 0.37821,-0.09319 0.75044,-0.209156 1.11466,-0.347266 0.364,-0.138105 0.71932,-0.298077 1.06402,-0.47904 0.34483,-0.181056 0.67841,-0.38279 0.9989,-0.604098 0.32049,-0.221222 0.62732,-0.461611 0.91881,-0.719852 0.29146,-0.258216 0.56705,-0.533809 0.82527,-0.825273 0.25824,-0.291488 0.49863,-0.598316 0.71985,-0.918807 0.22131,-0.320493 0.42304,-0.654069 0.6041,-0.998905 0.0448,-0.09506 0.088,-0.190849 0.12971,-0.287321 3e-5,6.8e-5 4.8e-4,-6.9e-5 5.2e-4,0 0.0415,0.09647 0.0846,0.192256 0.12919,0.287321 0.18105,0.344835 0.38278,0.678412 0.60409,0.998905 0.22122,0.320491 0.46162,0.627319 0.71986,0.918807 0.25822,0.291464 0.53381,0.567057 0.82527,0.825273 0.29149,0.258241 0.59832,0.49863 0.91881,0.719852 0.32049,0.221308 0.65407,0.423042 0.9989,0.604098 0.3447,0.180963 0.70002,0.340935 1.06402,0.47904 0.36422,0.13811 0.73645,0.254077 1.11466,0.347266 0.37799,0.09316 0.76127,0.163393 1.14773,0.210323 0.38206,0.04598 0.76653,0.0691 1.15135,0.06925 0.003,-0.0069 0.006,-0.01378 0.009,-0.02067 -0.17095,-0.07718 -0.34047,-0.157464 -0.5085,-0.240812 -0.44641,-0.238475 -0.88084,-0.498721 -1.30173,-0.779798 -0.4209,-0.281311 -0.82774,-0.58312 -1.21904,-0.904337 -0.39128,-0.32108 -0.76656,-0.661176 -1.12448,-1.019059 -0.35806,-0.357912 -0.69833,-0.73319 -1.01958,-1.12448 -0.32104,-0.391313 -0.62268,-0.798152 -0.90382,-1.219047 -0.28125,-0.420877 -0.54167,-0.85531 -0.78031,-1.301729 -0.2385,-0.446447 -0.45494,-0.904335 -0.64854,-1.372009 -0.0917,-0.237623 -0.1775,-0.477475 -0.25735,-0.719336 2e-5,-3.45e-4 -2e-5,-6.89e-4 0,-10e-4 -0.0903,-0.234067 -0.17491,-0.470299 -0.25373,-0.708483 -0.14684,-0.484428 -0.2698,-0.975774 -0.36845,-1.472262 -0.0988,-0.496452 -0.1731,-0.997457 -0.22273,-1.5012 -0.0479,-0.491889 -0.0744,-1.48053 -0.0744,-1.48053 z"
       sodipodi:nodetypes="ccccccscccccccccscscssccccccsscscscccccccccccccccccc" />
    <path
       style="fill:none;fill-opacity:1;stroke:#ffffff;stroke-width:0.105833;stroke-dasharray:none;stroke-opacity:1"
       d="m 126.09281,39.473065 c -0.38646,0.0469 -0.76975,0.11717 -1.14774,0.21032 -0.37821,0.0932 -0.75044,0.20916 -1.11466,0.34727 -0.364,0.13811 -0.71932,0.29808 -1.06402,0.47904 -0.34484,0.18106 -0.67841,0.38279 -0.9989,0.6041 -0.0959,0.0725 -0.19057,0.14672 -0.28474,0.22272 -0.21952,0.1568 -0.43145,0.32266 -0.63613,0.49713 -0.18241,0.16886 -0.35824,0.34469 -0.5271,0.5271 0.24543,0.36212 0.5061,0.71366 0.78134,1.05368 0.32108,0.39128 0.66118,0.76656 1.01906,1.12448 0.35792,0.35788 0.7332,0.69798 1.12448,1.01906 0.39131,0.32104 0.79816,0.62268 1.21905,0.90382 0.42088,0.28125 0.85531,0.54167 1.30173,0.78031 0.16803,0.0834 0.33754,0.16364 0.50849,0.24082 0.12964,-0.25678 0.24776,-0.51921 0.35399,-0.78652 0.13809,-0.36405 0.25405,-0.73611 0.34726,-1.11414 0.0932,-0.37816 0.16342,-0.76161 0.21033,-1.14825 0.047,-0.38631 0.0707,-0.77511 0.0708,-1.16427 h 0.002 v -5.2e-4 c -1e-4,-0.3895 -0.0237,-0.77865 -0.0708,-1.1653 -0.0469,-0.38664 -0.11714,-0.77009 -0.21032,-1.14825 -0.0932,-0.37804 -0.20918,-0.7501 -0.34727,-1.11415 -0.0278,-0.06567 -0.17564,-0.390153 -0.17564,-0.390153 0,0 -0.30108,0.01695 -0.36121,0.0217 z"
       id="path56117"
       sodipodi:nodetypes="cscscccccccccccccccsccccc" />
    <path
       id="path56119"
       style="fill:none;fill-opacity:1;stroke:#ffffff;stroke-width:0.079375;stroke-dasharray:none;stroke-opacity:1;filter:url(#filter56121)"
       d="m 118.58642,43.691518 a 9.6654892,9.6654892 0 0 1 -0.25942,-0.331246 9.6654892,9.6654892 0 0 1 -0.60358,-0.998906 9.6654892,9.6654892 0 0 1 -0.13384,-0.297656 9.6654892,9.6654892 0 0 1 -0.13436,0.297656 9.6654892,9.6654892 0 0 1 -0.6041,0.998906 9.6654892,9.6654892 0 0 1 -0.262,0.334863 15.464787,15.464786 0 0 1 0.33176,0.928109 15.464787,15.464786 0 0 1 0.36897,1.472261 15.464787,15.464786 0 0 1 0.22273,1.5012 15.464787,15.464786 0 0 1 0.0744,1.51567 15.464787,15.464786 0 0 1 0.0744,-1.51567 15.464787,15.464786 0 0 1 0.22272,-1.5012 15.464787,15.464786 0 0 1 0.36897,-1.472261 15.464787,15.464786 0 0 1 0.33332,-0.931726 z" />
    <path
       id="path58607"
       style="opacity:1;fill:none;fill-opacity:1;stroke:none;stroke-width:0.0793751;stroke-dasharray:none;stroke-opacity:1"
       d="M 130.54935,43.299712 A 12.957227,12.957227 0 0 1 117.59209,56.256937 12.957227,12.957227 0 0 1 104.63487,43.299712 12.957227,12.957227 0 0 1 117.59209,30.342485 12.957227,12.957227 0 0 1 130.54935,43.299712 Z" />
  </g>
</svg>
